:SAMPLES-PER-SECOND 30
:FRAME-RANGE 1-2045
:FULLY-SPECIFIED
:DEGREES
1918
root  26.8603 37.1535 55.0528 173.969 49.7999 171.042
RightUpLeg  -32.4915 -12.0557 -4.08218
RightLeg  72.5979 -2.64311 -10.4086
RightFoot  -0.373844 -0.492622 5.10046
RightToes  5.82063e-011 0 -3.6325e-017
Spine  16.3229 2.94609 5.07297
Spine1  -3.40083 8.41259 -29.0918
HEad  -5.41186 -1.20527 11.3918
LeftShoulder1  1.97196 -2.71265 -25.5602
LeftArm  -43.6501 -11.2052 -23.6759
LeftForeArm  -19.3246 -56.0406 -18.4043
LeftHand  -0.737173 9.57895 -17.8907
RightShoulder  -8.87744 37.3843 -33.6876
RightArm  -50.6885 53.1886 -0.966292
RightForeArm  -34.2874 19.5407 7.2233
RightHand  0.421358 -3.42406 26.5502
LeftUpLeg  -18.4787 7.97233 -6.75808
LeftLeg  37.1648 4.28789 3.88431
LeftFoot  -18.3223 0.0391262 -1.15998
LeftToes  -3.90176e-010 -2.48536e-010 1.05482e-011
1919
root  28.0894 37.5938 54.1402 175.963 50.0685 172.078
RightUpLeg  -34.7863 -14.4464 -1.88221
RightLeg  63.6155 -3.52358 -8.27231
RightFoot  -1.09767 -0.573362 6.30618
RightToes  5.82063e-011 0 -3.6325e-017
Spine  15.7613 3.43522 7.76967
Spine1  -2.93377 9.61249 -29.7942
HEad  -5.84279 -3.86562 12.7539
LeftShoulder1  2.26793 -3.09535 -28.2982
LeftArm  -41.7286 -8.70555 -23.3829
LeftForeArm  -23.778 -52.96 -16.6383
LeftHand  -0.693191 8.93244 -19.7794
RightShoulder  -9.38974 39.1449 -33.9501
RightArm  -54.6624 56.0296 -0.951282
RightForeArm  -28.8266 16.0153 7.78141
RightHand  0.712822 -2.19532 26.3492
LeftUpLeg  -15.3663 8.31698 -5.50048
LeftLeg  33.6996 3.94092 3.20645
LeftFoot  -18.9038 -0.0483169 -2.44576
LeftToes  -3.90176e-010 -2.48536e-010 1.05482e-011
1920
root  29.3848 38.1432 53.3797 178.789 48.6877 173.828
RightUpLeg  -35.2233 -16.7021 0.823832
RightLeg  50.1682 -3.65243 -5.03437
RightFoot  -1.0556 -0.652172 7.15637
RightToes  5.82063e-011 0 -3.6325e-017
Spine  15.6264 3.70684 9.86239
Spine1  -2.83214 10.224 -29.574
HEad  -6.58071 -6.93184 13.8672
LeftShoulder1  2.47289 -3.18992 -30.9205
LeftArm  -40.0432 -7.56874 -23.1532
LeftForeArm  -26.2844 -49.1472 -14.6589
LeftHand  -0.522709 7.98969 -19.816
RightShoulder  -9.09282 41.5766 -31.8682
RightArm  -49.9749 56.8913 1.1528
RightForeArm  -28.1868 16.2178 8.13813
RightHand  0.95036 -1.21742 26.4324
LeftUpLeg  -12.1124 9.167 -3.46302
LeftLeg  28.8798 1.46518 1.23677
LeftFoot  -18.0111 -0.064643 -2.96177
LeftToes  -3.90176e-010 -2.48536e-010 1.05482e-011
1921
root  30.7106 38.6041 52.6941 -178.642 45.6604 174.679
RightUpLeg  -34.6707 -18.4581 2.2209
RightLeg  34.9232 -5.02734 -4.01314
RightFoot  -0.820395 -0.731656 7.87324
RightToes  5.82063e-011 0 -3.6325e-017
Spine  14.9185 3.67697 11.1322
Spine1  -2.24376 10.4295 -29.2337
HEad  -7.40681 -10.0562 14.8462
LeftShoulder1  2.52914 -3.03183 -32.6792
LeftArm  -39.0546 -8.17548 -22.7565
LeftForeArm  -28.9275 -44.6033 -12.7006
LeftHand  -0.548385 7.88903 -21.6608
RightShoulder  -7.8303 43.1211 -28.1587
RightArm  -41.8799 57.1245 4.62221
RightForeArm  -27.4381 17.8755 7.99492
RightHand  1.2523 -0.0195584 26.7246
LeftUpLeg  -9.71014 9.39718 -1.95079
LeftLeg  24.1091 -1.388 -0.333164
LeftFoot  -16.3943 -0.0654815 -3.70967
LeftToes  -3.90176e-010 -2.48536e-010 1.05482e-011
1922
root  32.1311 38.8271 51.9854 -176.826 41.491 174.964
RightUpLeg  -33.0012 -17.7273 0.936657
RightLeg  22.0289 -7.71642 -3.63262
RightFoot  -1.32571 -0.57525 6.45403
RightToes  5.82063e-011 0 -3.6325e-017
Spine  14.2879 3.40732 12.1697
Spine1  -1.76463 10.3261 -29.0486
HEad  -7.55677 -13.6413 14.6808
LeftShoulder1  2.55824 -2.95563 -33.5805
LeftArm  -36.4456 -8.71314 -22.4641
LeftForeArm  -30.2919 -41.0979 -11.3897
LeftHand  -0.543142 7.7708 -22.4589
RightShoulder  -5.99091 43.8122 -23.632
RightArm  -33.9215 56.728 9.34027
RightForeArm  -28.2299 18.708 7.96026
RightHand  1.46577 0.778496 27.0774
LeftUpLeg  -7.83752 9.78027 -0.416577
LeftLeg  21.0225 -5.3985 -1.95022
LeftFoot  -15.324 -0.0572602 -4.286
LeftToes  -3.90176e-010 -2.48536e-010 1.05482e-011
1923
root  33.6342 38.7829 51.2456 -176.194 36.7444 175.019
RightUpLeg  -30.8743 -14.7937 -2.63998
RightLeg  16.3256 -12.6516 -4.03208
RightFoot  -3.25579 -0.305997 4.01303
RightToes  5.82063e-011 0 -3.6325e-017
Spine  13.816 2.98422 12.8671
Spine1  -0.762623 9.88626 -27.6519
HEad  -6.85181 -16.7405 13.2797
LeftShoulder1  2.59133 -2.99232 -33.8636
LeftArm  -31.8129 -9.68296 -22.7983
LeftForeArm  -34.8728 -37.7856 -10.4182
LeftHand  -0.741439 8.71257 -22.5892
RightShoulder  -4.18939 44.3335 -19.3358
RightArm  -27.7414 55.9035 14.5347
RightForeArm  -30.9533 18.797 8.21863
RightHand  1.46087 0.816066 26.827
LeftUpLeg  -6.11939 8.66542 1.4809
LeftLeg  20.4906 -8.67001 -3.23805
LeftFoot  -15.507 -0.116064 -5.74134
LeftToes  -3.90176e-010 -2.48536e-010 1.05482e-011
1924
root  35.1903 38.5237 50.4903 -176.331 32.3033 175.279
RightUpLeg  -30.1806 -14.3697 -4.32376
RightLeg  19.3473 -13.0232 -5.21917
RightFoot  -1.50767 -0.56822 6.47797
RightToes  5.82063e-011 0 -3.6325e-017
Spine  14.0314 2.66881 13.7004
Spine1  0.202584 9.37857 -25.2917
HEad  -5.42901 -19.0753 11.3362
LeftShoulder1  2.68074 -3.25615 -33.6344
LeftArm  -28.0302 -10.506 -23.6368
LeftForeArm  -37.5822 -33.792 -9.2703
LeftHand  -0.816166 9.0604 -22.661
RightShoulder  -1.8947 44.9208 -13.9869
RightArm  -20.3809 54.9008 18.3345
RightForeArm  -31.2417 18.9914 8.37751
RightHand  1.45204 1.01805 25.8289
LeftUpLeg  -5.17403 5.72374 3.77231
LeftLeg  23.0855 -9.9066 -4.27403
LeftFoot  -16.5868 -0.273083 -8.11799
LeftToes  -3.90176e-010 -2.48536e-010 1.05482e-011
1925
root  36.8287 38.0214 49.7671 -176.644 28.9079 175.769
RightUpLeg  -31.4495 -16.3276 -3.14863
RightLeg  28.7441 -12.9495 -7.80965
RightFoot  -4.03607 -0.251699 3.51036
RightToes  5.82063e-011 0 -3.6325e-017
Spine  15.0392 2.30335 14.8123
Spine1  0.388336 8.966 -23.5529
HEad  -4.22173 -20.5208 9.88651
LeftShoulder1  2.69307 -3.3948 -33.0216
LeftArm  -24.8061 -11.1788 -24.5573
LeftForeArm  -37.9445 -31.0229 -8.49874
LeftHand  -0.766192 8.77716 -22.9418
RightShoulder  0.0515669 45.906 -9.54937
RightArm  -16.017 53.8998 21.0551
RightForeArm  -30.3347 18.3611 8.86143
RightHand  1.25298 0.939754 22.6551
LeftUpLeg  -6.63464 2.81849 6.5036
LeftLeg  30.7106 -9.45356 -5.68041
LeftFoot  -17.1372 -0.524364 -12.3416
LeftToes  -3.90176e-010 -2.48536e-010 1.05482e-011
1926
root  38.4423 37.3677 49.1074 -176.395 26.273 177.148
RightUpLeg  -32.4297 -16.687 -1.06537
RightLeg  37.1815 -13.6146 -11.1051
RightFoot  -8.76371 -0.115397 2.4844
RightToes  5.82063e-011 0 -3.6325e-017
Spine  16.1012 2.08165 16.8423
Spine1  0.83744 9.08377 -22.2458
HEad  -3.98576 -21.8269 8.88631
LeftShoulder1  2.70239 -3.4746 -32.7106
LeftArm  -23.7084 -12.4876 -26.0525
LeftForeArm  -38.5205 -29.0212 -7.9841
LeftHand  -0.787841 8.88825 -22.8883
RightShoulder  1.19045 46.3745 -7.03527
RightArm  -17.965 53.0916 22.1086
RightForeArm  -25.6002 15.8681 10.037
RightHand  1.15048 0.96444 20.7557
LeftUpLeg  -11.8491 0.320551 10.0308
LeftLeg  43.2301 -6.02288 -5.64819
LeftFoot  -12.4349 -0.124889 -20.6377
LeftToes  -3.90176e-010 -2.48536e-010 1.05482e-011
1927
root  40.0247 36.7295 48.4675 -176.187 23.5267 178.879
RightUpLeg  -32.2373 -19.8268 1.92173
RightLeg  43.2246 -12.2977 -12.4005
RightFoot  -14.861 0.00309062 3.37762
RightToes  5.82063e-011 0 -3.6325e-017
Spine  17.1156 1.64129 18.8188
Spine1  1.71232 8.87932 -20.1394
HEad  -4.30238 -22.7229 8.79621
LeftShoulder1  2.68696 -3.56068 -32.0213
LeftArm  -24.4537 -13.2625 -27.9337
LeftForeArm  -38.0288 -27.4345 -7.56431
LeftHand  -0.749871 8.58341 -23.7471
RightShoulder  1.86469 46.7628 -5.58221
RightArm  -20.5642 52.2599 21.651
RightForeArm  -23.3839 13.532 11.0995
RightHand  1.13364 0.959509 20.4734
LeftUpLeg  -19.3018 -2.67496 12.9893
LeftLeg  56.1441 -1.48574 -1.88693
LeftFoot  0.797771 2.08867 -19.5247
LeftToes  -3.90176e-010 -2.48536e-010 1.05482e-011
1928
root  41.4508 36.0577 47.8599 -175.962 22.4612 -179.54
RightUpLeg  -31.9964 -23.0578 4.7762
RightLeg  47.8434 -9.86215 -11.8104
RightFoot  -20.4146 0.182052 4.03693
RightToes  5.82063e-011 0 -3.6325e-017
Spine  18.8303 1.58737 20.7818
Spine1  1.6873 9.15399 -18.8198
HEad  -5.79129 -23.7836 9.32643
LeftShoulder1  2.66539 -3.57444 -31.6414
LeftArm  -24.2681 -13.2728 -29.0106
LeftForeArm  -36.9571 -27.5031 -7.54775
LeftHand  -0.714166 8.43595 -23.6257
RightShoulder  2.16285 46.7526 -4.92897
RightArm  -22.3227 51.8691 21.4031
RightForeArm  -21.4326 11.6983 11.7695
RightHand  1.13201 0.952384 20.4681
LeftUpLeg  -26.0255 -4.76726 14.2779
LeftLeg  66.2393 0.418473 1.73887
LeftFoot  9.46243 1.22206 -6.96719
LeftToes  -3.90176e-010 -2.48536e-010 1.05482e-011
